<svg width="95" height="33" viewBox="0 0 95 33" fill="none" xmlns="http://www.w3.org/2000/svg">
<path d="M34.296 26.168C33.176 26.168 32.168 25.976 31.272 25.592C30.376 25.192 29.672 24.632 29.16 23.912C28.648 23.192 28.392 22.352 28.392 21.392H31.32C31.384 22.112 31.664 22.704 32.16 23.168C32.672 23.632 33.384 23.864 34.296 23.864C35.24 23.864 35.976 23.64 36.504 23.192C37.032 22.728 37.296 22.136 37.296 21.416C37.296 20.856 37.128 20.4 36.792 20.048C36.472 19.696 36.064 19.424 35.568 19.232C35.088 19.04 34.416 18.832 33.552 18.608C32.464 18.32 31.576 18.032 30.888 17.744C30.216 17.44 29.64 16.976 29.16 16.352C28.68 15.728 28.44 14.896 28.44 13.856C28.44 12.896 28.68 12.056 29.16 11.336C29.64 10.616 30.312 10.064 31.176 9.68C32.04 9.296 33.04 9.104 34.176 9.104C35.792 9.104 37.112 9.512 38.136 10.328C39.176 11.128 39.752 12.232 39.864 13.64H36.84C36.792 13.032 36.504 12.512 35.976 12.08C35.448 11.648 34.752 11.432 33.888 11.432C33.104 11.432 32.464 11.632 31.968 12.032C31.472 12.432 31.224 13.008 31.224 13.76C31.224 14.272 31.376 14.696 31.68 15.032C32 15.352 32.4 15.608 32.88 15.8C33.36 15.992 34.016 16.2 34.848 16.424C35.952 16.728 36.848 17.032 37.536 17.336C38.24 17.64 38.832 18.112 39.312 18.752C39.808 19.376 40.056 20.216 40.056 21.272C40.056 22.12 39.824 22.92 39.36 23.672C38.912 24.424 38.248 25.032 37.368 25.496C36.504 25.944 35.48 26.168 34.296 26.168ZM45.0604 14.72C45.5244 14.112 46.1564 13.6 46.9564 13.184C47.7564 12.768 48.6604 12.56 49.6684 12.56C50.8204 12.56 51.8684 12.848 52.8124 13.424C53.7724 13.984 54.5244 14.776 55.0684 15.8C55.6124 16.824 55.8844 18 55.8844 19.328C55.8844 20.656 55.6124 21.848 55.0684 22.904C54.5244 23.944 53.7724 24.76 52.8124 25.352C51.8684 25.928 50.8204 26.216 49.6684 26.216C48.6604 26.216 47.7644 26.016 46.9804 25.616C46.1964 25.2 45.5564 24.688 45.0604 24.08V32.288H42.3244V12.776H45.0604V14.72ZM53.1004 19.328C53.1004 18.416 52.9084 17.632 52.5244 16.976C52.1564 16.304 51.6604 15.8 51.0364 15.464C50.4284 15.112 49.7724 14.936 49.0684 14.936C48.3804 14.936 47.7244 15.112 47.1004 15.464C46.4924 15.816 45.9964 16.328 45.6124 17C45.2444 17.672 45.0604 18.464 45.0604 19.376C45.0604 20.288 45.2444 21.088 45.6124 21.776C45.9964 22.448 46.4924 22.96 47.1004 23.312C47.7244 23.664 48.3804 23.84 49.0684 23.84C49.7724 23.84 50.4284 23.664 51.0364 23.312C51.6604 22.944 52.1564 22.416 52.5244 21.728C52.9084 21.04 53.1004 20.24 53.1004 19.328ZM60.366 8.24V26H57.63V8.24H60.366ZM64.3901 11.024C63.8941 11.024 63.4781 10.856 63.1421 10.52C62.8061 10.184 62.6381 9.768 62.6381 9.272C62.6381 8.776 62.8061 8.36 63.1421 8.024C63.4781 7.688 63.8941 7.52 64.3901 7.52C64.8701 7.52 65.2781 7.688 65.6141 8.024C65.9501 8.36 66.1181 8.776 66.1181 9.272C66.1181 9.768 65.9501 10.184 65.6141 10.52C65.2781 10.856 64.8701 11.024 64.3901 11.024ZM65.7341 12.776V26H62.9981V12.776H65.7341ZM67.4542 19.376C67.4542 18.016 67.7262 16.824 68.2702 15.8C68.8302 14.76 69.5983 13.96 70.5743 13.4C71.5503 12.84 72.6703 12.56 73.9343 12.56C75.5343 12.56 76.8543 12.944 77.8943 13.712C78.9503 14.464 79.6623 15.544 80.0303 16.952H77.0783C76.8383 16.296 76.4543 15.784 75.9263 15.416C75.3983 15.048 74.7343 14.864 73.9343 14.864C72.8143 14.864 71.9183 15.264 71.2463 16.064C70.5903 16.848 70.2623 17.952 70.2623 19.376C70.2623 20.8 70.5903 21.912 71.2463 22.712C71.9183 23.512 72.8143 23.912 73.9343 23.912C75.5183 23.912 76.5663 23.216 77.0783 21.824H80.0303C79.6463 23.168 78.9262 24.24 77.8703 25.04C76.8143 25.824 75.5023 26.216 73.9343 26.216C72.6703 26.216 71.5503 25.936 70.5743 25.376C69.5983 24.8 68.8302 24 68.2702 22.976C67.7262 21.936 67.4542 20.736 67.4542 19.376ZM93.9169 19.064C93.9169 19.56 93.8849 20.008 93.8209 20.408H83.7169C83.7969 21.464 84.1889 22.312 84.8929 22.952C85.5969 23.592 86.4609 23.912 87.4849 23.912C88.9569 23.912 89.9969 23.296 90.6049 22.064H93.5569C93.1569 23.28 92.4289 24.28 91.3729 25.064C90.3329 25.832 89.0369 26.216 87.4849 26.216C86.2209 26.216 85.0849 25.936 84.0769 25.376C83.0849 24.8 82.3009 24 81.7249 22.976C81.1649 21.936 80.8849 20.736 80.8849 19.376C80.8849 18.016 81.1569 16.824 81.7009 15.8C82.2609 14.76 83.0369 13.96 84.0289 13.4C85.0369 12.84 86.1889 12.56 87.4849 12.56C88.7329 12.56 89.8449 12.832 90.8209 13.376C91.7969 13.92 92.5569 14.688 93.1009 15.68C93.6449 16.656 93.9169 17.784 93.9169 19.064ZM91.0609 18.2C91.0449 17.192 90.6849 16.384 89.9809 15.776C89.2769 15.168 88.4049 14.864 87.3649 14.864C86.4209 14.864 85.6129 15.168 84.9409 15.776C84.2689 16.368 83.8689 17.176 83.7409 18.2H91.0609Z" fill="#EAEAE1"/>
<path fill-rule="evenodd" clip-rule="evenodd" d="M2.46429 10.3496C2.46429 9.52474 2.71453 9.03922 3.02158 8.75882C3.32859 8.47846 3.8602 8.24999 4.76335 8.24999C5.66649 8.24999 6.19809 8.47846 6.50512 8.75882C6.81217 9.03922 7.06241 9.52474 7.06241 10.3496C7.06241 11.1744 6.81217 11.6599 6.50512 11.9403C6.19809 12.2207 5.66649 12.4491 4.76335 12.4491C3.8602 12.4491 3.32859 12.2207 3.02158 11.9403C2.71453 11.6599 2.46429 11.1744 2.46429 10.3496ZM4.76335 6C3.40651 6 2.17253 6.35196 1.27894 7.16795C0.385381 7.98391 0 9.11066 0 10.3496C0 11.5885 0.385381 12.7152 1.27894 13.5312C1.83591 14.0398 2.52512 14.3681 3.2939 14.5433C4.1788 15.2509 5.02103 15.9001 5.83906 16.5005C5.02113 17.101 4.179 17.75 3.29421 18.4575C2.5253 18.6327 1.83597 18.961 1.27894 19.4697C0.385381 20.2857 0 21.4125 0 22.6514C0 23.8902 0.385381 25.017 1.27894 25.833C2.17253 26.649 3.40651 27.0009 4.76335 27.0009C6.12017 27.0009 7.35417 26.649 8.24775 25.833C9.14132 25.017 9.5267 23.8902 9.5267 22.6514C9.5267 21.4125 9.14132 20.2857 8.24775 19.4697C7.84711 19.1039 7.37802 18.8313 6.86011 18.6419C7.19585 18.3899 7.52644 18.1469 7.85328 17.912C11.8071 20.5426 15.5416 22.1609 21.367 23.9943C22.0103 24.1967 22.7117 23.8847 22.9335 23.2973C23.1551 22.7099 22.8134 22.0695 22.17 21.867C16.8846 20.2036 13.4482 18.7554 9.92713 16.5005C13.4482 14.2457 16.8846 12.7975 22.17 11.134C22.8134 10.9315 23.1551 10.2912 22.9335 9.70381C22.7117 9.11641 22.0103 8.80436 21.367 9.00685C15.5416 10.8403 11.8071 12.4585 7.85328 15.0891C7.52639 14.8542 7.19575 14.6111 6.85995 14.3591C7.37792 14.1697 7.84706 13.8971 8.24775 13.5312C9.14132 12.7152 9.5267 11.5885 9.5267 10.3496C9.5267 9.11066 9.14132 7.98391 8.24775 7.16795C7.35417 6.35196 6.12017 6 4.76335 6ZM2.46429 22.6514C2.46429 23.4762 2.71453 23.9618 3.02158 24.2421C3.32859 24.5225 3.8602 24.7509 4.76335 24.7509C5.66649 24.7509 6.19809 24.5225 6.50512 24.2421C6.81217 23.9618 7.06241 23.4762 7.06241 22.6514C7.06241 21.8265 6.81217 21.341 6.50512 21.0606C6.19809 20.7802 5.66649 20.5518 4.76335 20.5518C3.8602 20.5518 3.32859 20.7802 3.02158 21.0606C2.71453 21.341 2.46429 21.8265 2.46429 22.6514Z" fill="url(#paint0_linear_24_9)"/>
<defs>
<linearGradient id="paint0_linear_24_9" x1="22.9228" y1="27.005" x2="-3.0692" y2="10.9925" gradientUnits="userSpaceOnUse">
<stop offset="0.4" stop-color="#4CF6ED"/>
<stop offset="0.75" stop-color="#977CEF"/>
</linearGradient>
</defs>
</svg>
