<svg width="24" height="17" viewBox="0 0 24 17" fill="none" xmlns="http://www.w3.org/2000/svg">
<path d="M8.3999 14.1035L9.77778 14.1035L10.4865 14.1245C11.2939 14.1484 11.9643 13.5518 12.026 12.7463C12.1223 11.4883 12.3152 10.0977 13.3005 9.12211L22.0151 0.14612C22.093 0.065852 22.2217 0.065117 22.3005 0.144489L23.8602 1.71467C23.9376 1.79258 23.9377 1.91833 23.8604 1.99636L9.1406 16.8582C9.06297 16.9365 8.93654 16.9373 8.85802 16.8598L0.142823 8.25931C0.0640194 8.18154 0.0633881 8.05455 0.14141 7.976L1.70159 6.40535C1.77962 6.32679 1.90664 6.32659 1.98492 6.4049L4.85331 9.27419C5.65662 10.0917 5.81877 11.4835 5.9298 12.7551C5.99748 13.5302 6.64244 14.1035 7.42048 14.1035L8.3999 14.1035Z" fill="#EFEFE5"/>
</svg>
