<svg width="109" height="30" viewBox="0 0 109 30" fill="none" xmlns="http://www.w3.org/2000/svg">
<path d="M37.1541 20.6055C37.1541 20.207 37.0721 19.8555 36.9081 19.5508C36.744 19.2461 36.5135 18.9727 36.2166 18.7305C35.9041 18.5039 35.5331 18.3008 35.1034 18.1211C34.6815 17.9336 34.2088 17.7656 33.6854 17.6172C32.8807 17.3906 32.1385 17.1133 31.4588 16.7852C30.787 16.4492 30.2127 16.0742 29.7362 15.6602C29.2596 15.2383 28.8846 14.7617 28.6112 14.2305C28.3456 13.6914 28.2127 13.0859 28.2127 12.4141C28.2127 11.6875 28.369 11.0352 28.6815 10.457C28.994 9.87109 29.4159 9.37109 29.9471 8.95703C30.4784 8.55078 31.0956 8.24219 31.7987 8.03125C32.5096 7.8125 33.2557 7.70312 34.037 7.70312C34.8651 7.70312 35.6346 7.83203 36.3456 8.08984C37.0643 8.33984 37.6893 8.69141 38.2206 9.14453C38.7518 9.60547 39.1698 10.1562 39.4745 10.7969C39.787 11.4297 39.9432 12.1328 39.9432 12.9062H37.1541C37.1151 12.4766 37.0213 12.0859 36.8729 11.7344C36.7323 11.375 36.5331 11.0664 36.2752 10.8086C36.0096 10.5586 35.6854 10.3633 35.3026 10.2227C34.9276 10.0742 34.494 10 34.0018 10C33.5721 10 33.1737 10.0586 32.8065 10.1758C32.4471 10.2852 32.1346 10.4414 31.869 10.6445C31.6034 10.8555 31.3963 11.1094 31.2479 11.4062C31.0995 11.7031 31.0252 12.0352 31.0252 12.4023C31.0331 12.793 31.1346 13.1367 31.3299 13.4336C31.5252 13.7227 31.787 13.9766 32.1151 14.1953C32.451 14.4141 32.8338 14.6055 33.2635 14.7695C33.701 14.9336 34.1581 15.0859 34.6346 15.2266C35.2362 15.3984 35.8221 15.6133 36.3924 15.8711C36.9706 16.1211 37.5018 16.4258 37.9862 16.7852C38.5877 17.2383 39.0682 17.7812 39.4276 18.4141C39.7948 19.0391 39.9784 19.7617 39.9784 20.582C39.9784 21.3398 39.8182 22.0078 39.4979 22.5859C39.1854 23.1641 38.7635 23.6445 38.2323 24.0273C37.6932 24.4258 37.0682 24.7266 36.3573 24.9297C35.6463 25.125 34.8963 25.2227 34.1073 25.2227C33.2713 25.2227 32.4471 25.0938 31.6346 24.8359C30.8221 24.5703 30.1151 24.1875 29.5135 23.6875C28.9588 23.2188 28.5174 22.668 28.1893 22.0352C27.869 21.4023 27.7049 20.6758 27.6971 19.8555H30.5096C30.5487 20.3789 30.6581 20.8359 30.8377 21.2266C31.0252 21.6094 31.2791 21.9258 31.5995 22.1758C31.912 22.4336 32.2791 22.625 32.701 22.75C33.1307 22.875 33.5995 22.9375 34.1073 22.9375C34.537 22.9375 34.9354 22.8867 35.3026 22.7852C35.6776 22.6836 36.0018 22.5312 36.2752 22.3281C36.5409 22.1328 36.7518 21.8906 36.9081 21.6016C37.0721 21.3125 37.1541 20.9805 37.1541 20.6055ZM41.8074 29.875V12.3203H44.3856L44.491 13.6211C44.6629 13.4102 44.8504 13.2188 45.0535 13.0469C45.2566 12.875 45.4754 12.7266 45.7098 12.6016C46.0145 12.4375 46.3504 12.3125 46.7176 12.2266C47.0848 12.1328 47.4754 12.0859 47.8895 12.0859C48.702 12.0859 49.4168 12.2422 50.034 12.5547C50.659 12.8672 51.1824 13.3086 51.6043 13.8789C52.0184 14.4492 52.3348 15.1328 52.5535 15.9297C52.7723 16.7188 52.8816 17.5898 52.8816 18.543V18.7891C52.8816 19.7031 52.7723 20.5547 52.5535 21.3438C52.3426 22.1328 52.0262 22.8125 51.6043 23.3828C51.1824 23.9609 50.6629 24.4141 50.0457 24.7422C49.4285 25.0703 48.7215 25.2344 47.9246 25.2344C47.4715 25.2344 47.0535 25.1875 46.6707 25.0938C46.2957 25 45.9481 24.8633 45.6277 24.6836C45.4402 24.5742 45.2606 24.4492 45.0887 24.3086C44.9168 24.168 44.7566 24.0156 44.6082 23.8516V29.875H41.8074ZM50.0809 18.543C50.0809 17.9727 50.0223 17.4375 49.9051 16.9375C49.7957 16.4297 49.6238 15.9883 49.3895 15.6133C49.1473 15.2383 48.8387 14.9414 48.4637 14.7227C48.0887 14.5039 47.6395 14.3945 47.116 14.3945C46.827 14.3945 46.5574 14.4258 46.3074 14.4883C46.0574 14.5508 45.8348 14.6406 45.6395 14.7578C45.4129 14.8828 45.2137 15.0391 45.0418 15.2266C44.8777 15.4141 44.7332 15.625 44.6082 15.8594V21.4961C44.7176 21.7148 44.8504 21.9141 45.0066 22.0938C45.1629 22.2734 45.3426 22.4297 45.5457 22.5625C45.7566 22.6875 45.9949 22.7891 46.2606 22.8672C46.5262 22.9375 46.8191 22.9727 47.1395 22.9727C47.6629 22.9727 48.1082 22.8633 48.4754 22.6445C48.8504 22.418 49.1551 22.1133 49.3895 21.7305C49.6316 21.3398 49.8074 20.8945 49.9168 20.3945C50.0262 19.8867 50.0809 19.3516 50.0809 18.7891V18.543ZM55.7771 7H62.6091V22.6797H66.4529V25H55.7771V22.6797H59.7849V9.33203H55.7771V7ZM69.3366 12.3203H76.0632V22.6797H79.7898V25H69.3366V22.6797H73.239V14.6523H69.3366V12.3203ZM72.9812 9.03906C72.9812 8.8125 73.0202 8.60547 73.0984 8.41797C73.1765 8.22266 73.2898 8.05469 73.4382 7.91406C73.5788 7.78125 73.7468 7.67969 73.9421 7.60938C74.1452 7.53125 74.3718 7.49219 74.6218 7.49219C75.0437 7.49219 75.3835 7.60156 75.6413 7.82031C75.907 8.03125 76.0593 8.30469 76.0984 8.64062C76.153 8.98438 76.0945 9.28516 75.9226 9.54297C75.7507 9.79297 75.5007 9.96094 75.1726 10.0469C75.0085 10.1953 74.8132 10.293 74.5866 10.3398C74.3601 10.3867 74.1101 10.3672 73.8366 10.2812C73.5554 10.1953 73.3405 10.043 73.1921 9.82422C73.0515 9.59766 72.9812 9.33594 72.9812 9.03906ZM87.6657 22.9844C88.0173 22.9844 88.3532 22.9336 88.6735 22.832C89.0016 22.7227 89.2907 22.5703 89.5407 22.375C89.7829 22.1797 89.9743 21.9492 90.1149 21.6836C90.2634 21.418 90.3376 21.125 90.3376 20.8047H92.9743C92.9821 21.4219 92.8415 22.0039 92.5524 22.5508C92.2712 23.0898 91.8884 23.5547 91.404 23.9453C90.9118 24.3516 90.3454 24.6719 89.7048 24.9062C89.072 25.1328 88.404 25.2461 87.7009 25.2461C86.7243 25.2461 85.8688 25.0781 85.1345 24.7422C84.4079 24.3984 83.8024 23.9375 83.3181 23.3594C82.8259 22.7812 82.4548 22.1094 82.2048 21.3438C81.9548 20.5703 81.8298 19.7461 81.8298 18.8711V18.4609C81.8298 17.5938 81.9509 16.7734 82.1931 16C82.4431 15.2266 82.8141 14.5508 83.3063 13.9727C83.7985 13.3945 84.4079 12.9375 85.1345 12.6016C85.8688 12.2578 86.7204 12.0859 87.6891 12.0859C88.4548 12.0859 89.1618 12.2031 89.8102 12.4375C90.4665 12.6719 91.029 13 91.4977 13.4219C91.9665 13.8438 92.3298 14.3477 92.5876 14.9336C92.8532 15.5195 92.9821 16.1641 92.9743 16.8672H90.3376C90.3376 16.5234 90.2712 16.1992 90.1384 15.8945C90.0134 15.5898 89.8337 15.3242 89.5993 15.0977C89.3571 14.8711 89.0681 14.6914 88.7321 14.5586C88.404 14.4258 88.0485 14.3594 87.6657 14.3594C87.0798 14.3594 86.5915 14.4805 86.2009 14.7227C85.8181 14.957 85.5134 15.2656 85.2868 15.6484C85.0446 16.0312 84.8727 16.4688 84.7712 16.9609C84.6774 17.4531 84.6306 17.9531 84.6306 18.4609V18.8711C84.6306 19.3867 84.6774 19.8945 84.7712 20.3945C84.8727 20.8867 85.0407 21.3203 85.2751 21.6953C85.5016 22.0859 85.8102 22.3984 86.2009 22.6328C86.5915 22.8672 87.0798 22.9844 87.6657 22.9844ZM101.518 25.2344C100.581 25.2344 99.7213 25.0781 98.9401 24.7656C98.1666 24.4531 97.5026 24.0195 96.9479 23.4648C96.3932 22.918 95.9635 22.2734 95.6588 21.5312C95.362 20.7812 95.2135 19.9727 95.2135 19.1055V18.625C95.2135 17.6328 95.3698 16.7344 95.6823 15.9297C95.9948 15.125 96.4245 14.4375 96.9713 13.8672C97.5182 13.2969 98.151 12.8594 98.8698 12.5547C99.5963 12.2422 100.37 12.0859 101.19 12.0859C102.104 12.0859 102.913 12.2422 103.616 12.5547C104.319 12.8594 104.909 13.2852 105.385 13.832C105.862 14.3867 106.221 15.0469 106.464 15.8125C106.706 16.5781 106.827 17.4141 106.827 18.3203V19.5273H98.0377V19.5859C98.1237 20.1406 98.2565 20.6055 98.4362 20.9805C98.6159 21.3555 98.862 21.6914 99.1745 21.9883C99.487 22.3008 99.8541 22.543 100.276 22.7148C100.706 22.8867 101.174 22.9727 101.682 22.9727C102.378 22.9727 103.026 22.8398 103.628 22.5742C104.229 22.3008 104.725 21.9141 105.116 21.4141L106.616 22.8672C106.194 23.4766 105.546 24.0234 104.671 24.5078C103.803 24.9922 102.753 25.2344 101.518 25.2344ZM101.178 14.3594C100.78 14.3594 100.409 14.4336 100.065 14.582C99.7291 14.7227 99.4284 14.9258 99.1627 15.1914C98.8971 15.4648 98.6745 15.793 98.4948 16.1758C98.3151 16.5586 98.1823 16.9922 98.0963 17.4766H104.061V17.2891C104.061 16.9219 103.995 16.5586 103.862 16.1992C103.729 15.832 103.542 15.5117 103.299 15.2383C103.065 14.9727 102.768 14.7617 102.409 14.6055C102.057 14.4414 101.647 14.3594 101.178 14.3594Z" fill="#EAEAE1"/>
<path fill-rule="evenodd" clip-rule="evenodd" d="M2.41988 10.3496C2.41988 9.52474 2.66562 9.03922 2.96713 8.75882C3.26862 8.47846 3.79065 8.24999 4.67752 8.24999C5.56439 8.24999 6.08641 8.47846 6.38791 8.75882C6.68943 9.03922 6.93516 9.52474 6.93516 10.3496C6.93516 11.1744 6.68943 11.6599 6.38791 11.9403C6.08641 12.2207 5.56439 12.4491 4.67752 12.4491C3.79065 12.4491 3.26862 12.2207 2.96713 11.9403C2.66562 11.6599 2.41988 11.1744 2.41988 10.3496ZM4.67752 6C3.34513 6 2.13339 6.35196 1.2559 7.16795C0.378438 7.98391 0 9.11066 0 10.3496C0 11.5885 0.378438 12.7152 1.2559 13.5312C1.80283 14.0398 2.47962 14.3681 3.23455 14.5433C4.10351 15.2509 4.93056 15.9001 5.73385 16.5005C4.93066 17.101 4.1037 17.75 3.23485 18.4575C2.4798 18.6327 1.80289 18.961 1.2559 19.4697C0.378438 20.2857 0 21.4125 0 22.6514C0 23.8902 0.378438 25.017 1.2559 25.833C2.13339 26.649 3.34513 27.0009 4.67752 27.0009C6.0099 27.0009 7.22166 26.649 8.09914 25.833C8.97661 25.017 9.35505 23.8902 9.35505 22.6514C9.35505 21.4125 8.97661 20.2857 8.09914 19.4697C7.70572 19.1039 7.24509 18.8313 6.73651 18.6419C7.06619 18.3899 7.39083 18.1469 7.71178 17.912C11.5944 20.5426 15.2616 22.1609 20.982 23.9943C21.6138 24.1967 22.3025 23.8847 22.5202 23.2973C22.7379 22.7099 22.4023 22.0695 21.7706 21.867C16.5804 20.2036 13.2059 18.7554 9.74826 16.5005C13.2059 14.2457 16.5804 12.7975 21.7706 11.134C22.4023 10.9315 22.7379 10.2912 22.5202 9.70381C22.3025 9.11641 21.6138 8.80436 20.982 9.00685C15.2616 10.8403 11.5944 12.4585 7.71178 15.0891C7.39078 14.8542 7.06609 14.6111 6.73634 14.3591C7.24499 14.1697 7.70567 13.8971 8.09914 13.5312C8.97661 12.7152 9.35505 11.5885 9.35505 10.3496C9.35505 9.11066 8.97661 7.98391 8.09914 7.16795C7.22166 6.35196 6.0099 6 4.67752 6ZM2.41988 22.6514C2.41988 23.4762 2.66562 23.9618 2.96713 24.2421C3.26862 24.5225 3.79065 24.7509 4.67752 24.7509C5.56439 24.7509 6.08641 24.5225 6.38791 24.2421C6.68943 23.9618 6.93516 23.4762 6.93516 22.6514C6.93516 21.8265 6.68943 21.341 6.38791 21.0606C6.08641 20.7802 5.56439 20.5518 4.67752 20.5518C3.79065 20.5518 3.26862 20.7802 2.96713 21.0606C2.66562 21.341 2.41988 21.8265 2.41988 22.6514Z" fill="url(#paint0_linear_28_3)"/>
<defs>
<linearGradient id="paint0_linear_28_3" x1="22.5098" y1="27.005" x2="-3.26715" y2="11.4111" gradientUnits="userSpaceOnUse">
<stop offset="0.4" stop-color="#4CF6ED"/>
<stop offset="0.75" stop-color="#977CEF"/>
</linearGradient>
</defs>
</svg>
