<svg width="115" height="50" viewBox="0 0 115 50" fill="none" xmlns="http://www.w3.org/2000/svg">
<g id="Group 1">
<rect id="Rectangle 1" width="115" height="50" fill="#080D27"/>
<path id="Splice" d="M45.296 33.168C44.176 33.168 43.168 32.976 42.272 32.592C41.376 32.192 40.672 31.632 40.16 30.912C39.648 30.192 39.392 29.352 39.392 28.392H42.32C42.384 29.112 42.664 29.704 43.16 30.168C43.672 30.632 44.384 30.864 45.296 30.864C46.24 30.864 46.976 30.64 47.504 30.192C48.032 29.728 48.296 29.136 48.296 28.416C48.296 27.856 48.128 27.4 47.792 27.048C47.472 26.696 47.064 26.424 46.568 26.232C46.088 26.04 45.416 25.832 44.552 25.608C43.464 25.32 42.576 25.032 41.888 24.744C41.216 24.44 40.64 23.976 40.16 23.352C39.68 22.728 39.44 21.896 39.44 20.856C39.44 19.896 39.68 19.056 40.16 18.336C40.64 17.616 41.312 17.064 42.176 16.68C43.04 16.296 44.04 16.104 45.176 16.104C46.792 16.104 48.112 16.512 49.136 17.328C50.176 18.128 50.752 19.232 50.864 20.64H47.84C47.792 20.032 47.504 19.512 46.976 19.08C46.448 18.648 45.752 18.432 44.888 18.432C44.104 18.432 43.464 18.632 42.968 19.032C42.472 19.432 42.224 20.008 42.224 20.76C42.224 21.272 42.376 21.696 42.68 22.032C43 22.352 43.4 22.608 43.88 22.8C44.36 22.992 45.016 23.2 45.848 23.424C46.952 23.728 47.848 24.032 48.536 24.336C49.24 24.64 49.832 25.112 50.312 25.752C50.808 26.376 51.056 27.216 51.056 28.272C51.056 29.12 50.824 29.92 50.36 30.672C49.912 31.424 49.248 32.032 48.368 32.496C47.504 32.944 46.48 33.168 45.296 33.168ZM56.0604 21.72C56.5244 21.112 57.1564 20.6 57.9564 20.184C58.7564 19.768 59.6604 19.56 60.6684 19.56C61.8204 19.56 62.8684 19.848 63.8124 20.424C64.7724 20.984 65.5244 21.776 66.0684 22.8C66.6124 23.824 66.8844 25 66.8844 26.328C66.8844 27.656 66.6124 28.848 66.0684 29.904C65.5244 30.944 64.7724 31.76 63.8124 32.352C62.8684 32.928 61.8204 33.216 60.6684 33.216C59.6604 33.216 58.7644 33.016 57.9804 32.616C57.1964 32.2 56.5564 31.688 56.0604 31.08V39.288H53.3244V19.776H56.0604V21.72ZM64.1004 26.328C64.1004 25.416 63.9084 24.632 63.5244 23.976C63.1564 23.304 62.6604 22.8 62.0364 22.464C61.4284 22.112 60.7724 21.936 60.0684 21.936C59.3804 21.936 58.7244 22.112 58.1004 22.464C57.4924 22.816 56.9964 23.328 56.6124 24C56.2444 24.672 56.0604 25.464 56.0604 26.376C56.0604 27.288 56.2444 28.088 56.6124 28.776C56.9964 29.448 57.4924 29.96 58.1004 30.312C58.7244 30.664 59.3804 30.84 60.0684 30.84C60.7724 30.84 61.4284 30.664 62.0364 30.312C62.6604 29.944 63.1564 29.416 63.5244 28.728C63.9084 28.04 64.1004 27.24 64.1004 26.328ZM71.366 15.24V33H68.63V15.24H71.366ZM75.3901 18.024C74.8941 18.024 74.4781 17.856 74.1421 17.52C73.8061 17.184 73.6381 16.768 73.6381 16.272C73.6381 15.776 73.8061 15.36 74.1421 15.024C74.4781 14.688 74.8941 14.52 75.3901 14.52C75.8701 14.52 76.2781 14.688 76.6141 15.024C76.9501 15.36 77.1181 15.776 77.1181 16.272C77.1181 16.768 76.9501 17.184 76.6141 17.52C76.2781 17.856 75.8701 18.024 75.3901 18.024ZM76.7341 19.776V33H73.9981V19.776H76.7341ZM78.4542 26.376C78.4542 25.016 78.7262 23.824 79.2702 22.8C79.8302 21.76 80.5983 20.96 81.5743 20.4C82.5503 19.84 83.6703 19.56 84.9343 19.56C86.5343 19.56 87.8543 19.944 88.8943 20.712C89.9503 21.464 90.6623 22.544 91.0303 23.952H88.0783C87.8383 23.296 87.4543 22.784 86.9263 22.416C86.3983 22.048 85.7343 21.864 84.9343 21.864C83.8143 21.864 82.9183 22.264 82.2463 23.064C81.5903 23.848 81.2623 24.952 81.2623 26.376C81.2623 27.8 81.5903 28.912 82.2463 29.712C82.9183 30.512 83.8143 30.912 84.9343 30.912C86.5183 30.912 87.5663 30.216 88.0783 28.824H91.0303C90.6463 30.168 89.9262 31.24 88.8703 32.04C87.8143 32.824 86.5023 33.216 84.9343 33.216C83.6703 33.216 82.5503 32.936 81.5743 32.376C80.5983 31.8 79.8302 31 79.2702 29.976C78.7262 28.936 78.4542 27.736 78.4542 26.376ZM104.917 26.064C104.917 26.56 104.885 27.008 104.821 27.408H94.7169C94.7969 28.464 95.1889 29.312 95.8929 29.952C96.5969 30.592 97.4609 30.912 98.4849 30.912C99.9569 30.912 100.997 30.296 101.605 29.064H104.557C104.157 30.28 103.429 31.28 102.373 32.064C101.333 32.832 100.037 33.216 98.4849 33.216C97.2209 33.216 96.0849 32.936 95.0769 32.376C94.0849 31.8 93.3009 31 92.7249 29.976C92.1649 28.936 91.8849 27.736 91.8849 26.376C91.8849 25.016 92.1569 23.824 92.7009 22.8C93.2609 21.76 94.0369 20.96 95.0289 20.4C96.0369 19.84 97.1889 19.56 98.4849 19.56C99.7329 19.56 100.845 19.832 101.821 20.376C102.797 20.92 103.557 21.688 104.101 22.68C104.645 23.656 104.917 24.784 104.917 26.064ZM102.061 25.2C102.045 24.192 101.685 23.384 100.981 22.776C100.277 22.168 99.4049 21.864 98.3649 21.864C97.4209 21.864 96.6129 22.168 95.9409 22.776C95.2689 23.368 94.8689 24.176 94.7409 25.2H102.061Z" fill="#EAEDFF"/>
<g id="scissors--clipboard-copy-cut-paste-right-scissors">
<path id="Union" fill-rule="evenodd" clip-rule="evenodd" d="M12.4643 19.3496C12.4643 18.5247 12.7145 18.0392 13.0216 17.7588C13.3286 17.4785 13.8602 17.25 14.7633 17.25C15.6665 17.25 16.1981 17.4785 16.5051 17.7588C16.8122 18.0392 17.0624 18.5247 17.0624 19.3496C17.0624 20.1744 16.8122 20.6599 16.5051 20.9403C16.1981 21.2207 15.6665 21.4491 14.7633 21.4491C13.8602 21.4491 13.3286 21.2207 13.0216 20.9403C12.7145 20.6599 12.4643 20.1744 12.4643 19.3496ZM14.7633 15C13.4065 15 12.1725 15.352 11.2789 16.1679C10.3854 16.9839 10 18.1107 10 19.3496C10 20.5885 10.3854 21.7152 11.2789 22.5312C11.8359 23.0398 12.5251 23.3681 13.2939 23.5433C14.1788 24.2509 15.021 24.9001 15.8391 25.5005C15.0211 26.101 14.179 26.75 13.2942 27.4575C12.5253 27.6327 11.836 27.961 11.2789 28.4697C10.3854 29.2857 10 30.4125 10 31.6514C10 32.8902 10.3854 34.017 11.2789 34.833C12.1725 35.649 13.4065 36.0009 14.7633 36.0009C16.1202 36.0009 17.3542 35.649 18.2478 34.833C19.1413 34.017 19.5267 32.8902 19.5267 31.6514C19.5267 30.4125 19.1413 29.2857 18.2478 28.4697C17.8471 28.1039 17.378 27.8313 16.8601 27.6419C17.1958 27.3899 17.5264 27.1469 17.8533 26.912C21.8071 29.5426 25.5416 31.1609 31.367 32.9943C32.0103 33.1967 32.7117 32.8847 32.9335 32.2973C33.1551 31.7099 32.8134 31.0695 32.17 30.867C26.8846 29.2036 23.4482 27.7554 19.9271 25.5005C23.4482 23.2457 26.8846 21.7975 32.17 20.134C32.8134 19.9315 33.1551 19.2912 32.9335 18.7038C32.7117 18.1164 32.0103 17.8044 31.367 18.0068C25.5416 19.8403 21.8071 21.4585 17.8533 24.0891C17.5264 23.8542 17.1957 23.6111 16.8599 23.3591C17.3779 23.1697 17.8471 22.8971 18.2478 22.5312C19.1413 21.7152 19.5267 20.5885 19.5267 19.3496C19.5267 18.1107 19.1413 16.9839 18.2478 16.1679C17.3542 15.352 16.1202 15 14.7633 15ZM12.4643 31.6514C12.4643 32.4762 12.7145 32.9618 13.0216 33.2421C13.3286 33.5225 13.8602 33.7509 14.7633 33.7509C15.6665 33.7509 16.1981 33.5225 16.5051 33.2421C16.8122 32.9618 17.0624 32.4762 17.0624 31.6514C17.0624 30.8265 16.8122 30.341 16.5051 30.0606C16.1981 29.7802 15.6665 29.5518 14.7633 29.5518C13.8602 29.5518 13.3286 29.7802 13.0216 30.0606C12.7145 30.341 12.4643 30.8265 12.4643 31.6514Z" fill="url(#paint0_linear_9_23)"/>
</g>
</g>
<defs>
<linearGradient id="paint0_linear_9_23" x1="32.9228" y1="36.005" x2="6.9308" y2="19.9925" gradientUnits="userSpaceOnUse">
<stop stop-color="#FF51E3"/>
<stop offset="1" stop-color="#1B4DFF"/>
</linearGradient>
</defs>
</svg>
